<?xml version="1.0" encoding="utf-8"?>
<!-- Generator: Adobe Illustrator 26.3.1, SVG Export Plug-In . SVG Version: 6.00 Build 0)  -->
<svg version="1.1" xmlns="http://www.w3.org/2000/svg" xmlns:xlink="http://www.w3.org/1999/xlink" x="0px" y="0px"
	 viewBox="0 0 510.2 510.2" style="enable-background:new 0 0 510.2 510.2;" xml:space="preserve">
<style type="text/css">
	.st0{fill:#010202;}
	.st1{fill:#FFFFFF;}
</style>
<g id="Layer_2">
	<rect x="-3.5" y="-3.6" class="st0" width="518.5" height="518.5"/>
</g>
<g id="Layer_1">
	<g>
		<rect x="234.7" y="364" class="st1" width="40.9" height="14.9"/>
		<g>
			<g>
				<path class="st1" d="M191.3,182l13-50.5h14.6l-14.4,51.4l15.9,67.8h-14.6l-11.8-52h-2.6v52h-14.6V131.5h14.6v24.2l-1.7,26.4
					H191.3z"/>
			</g>
			<g>
				<path class="st1" d="M249.3,131.5v100.3c0,1.2,0.3,2.2,1,2.9c0.7,0.7,1.7,1.1,3.2,1.1h15.4v14.9h-21c-4,0-7.2-1.2-9.6-3.7
					c-2.4-2.4-3.6-5.5-3.6-9.3V131.5H249.3z"/>
			</g>
			<g>
				<path class="st1" d="M303.3,130c5.9,0,10.8,1.9,14.6,5.7c3.8,3.8,5.8,8.8,5.8,15.2v55.2c0,6.4-1.9,11.4-5.8,15.2
					c-3.8,3.8-8.7,5.7-14.6,5.7c-5.9,0-10.8-1.9-14.6-5.7c-3.8-3.8-5.8-8.8-5.8-15.2v-55.2c0-6.4,1.9-11.4,5.8-15.2
					C292.5,131.9,297.3,130,303.3,130z M303.3,144.9c-1.7,0-3,0.6-4.2,1.7c-1.1,1.1-1.7,2.6-1.7,4.2v55.2c0,1.7,0.6,3.1,1.7,4.2
					c1.1,1.1,2.5,1.7,4.2,1.7c1.7,0,3-0.6,4.2-1.7c1.1-1.1,1.7-2.6,1.7-4.2v-55.2c0-1.7-0.6-3.1-1.7-4.2
					C306.3,145.5,304.9,144.9,303.3,144.9z"/>
			</g>
			<rect x="282.8" y="235.9" class="st1" width="40.9" height="14.9"/>
			<g>
				<path class="st1" d="M191.3,259.5v99.9c0,1.7,0.5,3.1,1.5,4.2c1,1.1,2.3,1.7,3.9,1.7c1.8,0,3.4-0.6,4.5-1.9
					c1.2-1.3,1.7-3,1.7-5.2v-98.7h14.6v119.3h-13.7l1.2-11.2h-1.7c-2.2,8.4-6.8,12.7-13.5,12.7c-4.3,0-7.5-1.5-9.7-4.5
					c-2.2-3-3.3-7.2-3.3-12.4V259.5H191.3z"/>
			</g>
			<g>
				<path class="st1" d="M320.8,259.5l12.7,119.3h-14.7l-2.3-29.5h-12.4l-2.5,29.5h-14.7l12.7-119.3H320.8z M305.3,334.3h9.9
					l-4.1-55.6h-1.7L305.3,334.3z"/>
			</g>
			<g>
				<path class="st1" d="M255.1,259.5c5.9,0,10.8,1.9,14.6,5.7c3.8,3.8,5.8,8.8,5.8,15.2v54.4c0,6.4-1.9,11.4-5.8,15.2
					c-3.8,3.8-8.7,5.7-14.6,5.7h-20.4v-96.1H255.1z M249.3,340.7h5.8c1.7,0,3-0.6,4.2-1.7c1.1-1.1,1.7-2.6,1.7-4.2v-54.4
					c0-1.7-0.6-3.1-1.7-4.2c-1.1-1.1-2.5-1.7-4.2-1.7h-5.8V340.7z"/>
			</g>
		</g>
	</g>
</g>
</svg>
